<svg width="300" height="310" viewBox="0 0 300 310" fill="none" xmlns="http://www.w3.org/2000/svg">
<path d="M75.5393 175.142C66.9742 164.721 59.1943 152.944 55.1973 140.097L76.5385 138.241L75.5393 175.142Z" fill="#FF9600" stroke="#33291C" stroke-width="0.713755" stroke-miterlimit="10" stroke-linecap="round" stroke-linejoin="round"/>
<path d="M112.94 295.91C111.013 296.623 108.943 296.909 106.73 296.695C105.66 295.91 104.518 295.124 103.518 293.911C103.376 291.841 103.518 289.771 103.947 287.559C101.591 289.7 99.6642 292.341 98.4508 295.481C96.8806 299.336 98.1653 303.761 101.52 306.259C102.519 306.973 103.518 307.686 104.66 308.4C106.159 309.328 107.944 309.899 109.728 309.899C118.579 310.042 127.501 307.758 135.423 303.618C135.923 304.403 136.494 306.259 136.851 307.33C143.774 307.044 151.197 305.688 157.336 302.333C151.768 298.194 145.13 293.697 138.707 291.127C134.067 289.343 129.142 287.915 124.217 288.415C119.15 288.986 114.225 291.698 112.94 295.91Z" fill="#3C3C3C"/>
<path d="M133.425 293.34C137.136 294.91 140.776 296.552 144.488 298.265C155.408 303.332 168.042 306.187 180.033 307.044C199.161 308.4 233.707 307.258 259.545 305.616L199.804 131.674L154.266 129.961L133.425 293.34Z" fill="#FF9600" stroke="#33291C" stroke-width="0.713755" stroke-miterlimit="10" stroke-linecap="round" stroke-linejoin="round"/>
<path d="M39.1378 145.736C44.8479 146.663 50.772 145.807 56.2679 143.808C60.9787 144.308 65.6895 144.879 70.4003 145.379L67.2598 126.107L40.0657 123.109L35.9973 132.246L39.1378 145.736Z" fill="#FECC9B" stroke="#33291C" stroke-width="0.713755" stroke-miterlimit="10" stroke-linecap="round" stroke-linejoin="round"/>
<path d="M29.2167 81.9257L65.0472 304.474C65.3327 306.187 66.9743 307.401 68.6873 307.258C70.5431 307.044 71.8992 305.402 71.6137 303.547L40.6368 80.1414" fill="#875330"/>
<path d="M29.2167 81.9257L65.0472 304.474C65.3327 306.187 66.9743 307.401 68.6873 307.258C70.5431 307.044 71.8992 305.402 71.6137 303.547L40.6368 80.1414" stroke="#33291C" stroke-width="0.713755" stroke-miterlimit="10" stroke-linecap="round" stroke-linejoin="round"/>
<path d="M51.6139 60.7322C54.6646 48.0048 46.82 35.2142 34.0926 32.1636C21.3652 29.1129 8.57458 36.9575 5.52393 49.6849C2.47328 62.4123 10.3178 75.2029 23.0452 78.2535C35.7726 81.3042 48.5633 73.4596 51.6139 60.7322Z" fill="#58CC02" stroke="#33291C" stroke-width="0.713755" stroke-miterlimit="10" stroke-linecap="round" stroke-linejoin="round"/>
<path d="M28.5745 73.3607C38.6265 73.3607 46.7753 65.212 46.7753 55.16C46.7753 45.108 38.6265 36.9592 28.5745 36.9592C18.5225 36.9592 10.3738 45.108 10.3738 55.16C10.3738 65.212 18.5225 73.3607 28.5745 73.3607Z" fill="#FF9600"/>
<path d="M20.5804 55.5169C25.705 55.5169 29.8593 51.3626 29.8593 46.238C29.8593 41.1135 25.705 36.9592 20.5804 36.9592C15.4559 36.9592 11.3016 41.1135 11.3016 46.238C11.3016 51.3626 15.4559 55.5169 20.5804 55.5169Z" fill="#FFB800"/>
<path d="M40.5654 83.9958C43.9201 81.2122 48.4881 77.0724 51.7 73.9319C52.7706 72.8613 53.5557 71.5765 53.984 70.149C54.6977 67.9364 55.3401 65.6524 55.9111 63.3683C56.4108 61.2985 56.1253 58.6576 55.4829 56.659C54.2695 53.0189 53.413 51.8769 51.3431 48.3795C53.6271 57.8724 51.4859 62.155 50.2725 64.8672C48.9163 67.9364 43.8487 72.7899 43.8487 72.7899C44.1342 70.9341 44.9907 67.0799 45.2762 65.0814C45.6331 62.6546 45.5617 60.2278 45.1334 57.8011C45.0621 57.3728 44.9907 56.9445 44.9193 56.5163C43.8487 51.4486 41.1364 46.952 37.1394 43.6687C36.8539 43.4546 36.5684 43.1691 36.2829 42.955L38.2814 47.8799C39.0665 49.8784 39.6375 52.0196 39.7803 54.2323L39.9944 56.8018C40.2799 60.3706 39.7803 64.0107 38.4241 67.294L35.4977 74.3602L29.5022 72.3617C25.5766 71.0769 22.5074 68.0077 21.2227 64.0821C20.723 62.6546 20.5089 61.2271 20.5803 59.7282L20.6516 53.233L18.3676 58.7289C17.4397 60.8702 17.1542 63.297 17.4397 65.6524L17.5111 66.3661C17.868 69.007 19.0814 71.5051 20.9371 73.5037L24.0063 77.0724C24.0063 77.0724 15.2271 75.6449 10.445 69.9349C6.59068 65.2955 4.94904 57.3014 4.94904 57.3014C4.94904 57.3014 3.94978 66.7944 7.94681 73.575L8.87469 75.1453C10.6591 78.1431 13.3713 80.3557 16.6546 81.4263L30.0018 85.7802" fill="#875330"/>
<mask id="mask0_232_752" style="mask-type:luminance" maskUnits="userSpaceOnUse" x="4" y="42" width="53" height="44">
<path d="M40.5654 83.9958C43.9201 81.2122 48.4881 77.0724 51.7 73.9319C52.7706 72.8613 53.5557 71.5765 53.984 70.149C54.6977 67.9364 55.3401 65.6524 55.9111 63.3683C56.4108 61.2985 56.1253 58.6576 55.4829 56.659C54.2695 53.0189 53.413 51.8769 51.3431 48.3795C53.6271 57.8724 51.4859 62.155 50.2725 64.8672C48.9163 67.9364 43.8487 72.7899 43.8487 72.7899C44.1342 70.9341 44.9907 67.0799 45.2762 65.0814C45.6331 62.6546 45.5617 60.2278 45.1334 57.8011C45.0621 57.3728 44.9907 56.9445 44.9193 56.5163C43.8487 51.4486 41.1364 46.952 37.1394 43.6687C36.8539 43.4546 36.5684 43.1691 36.2829 42.955L38.2814 47.8799C39.0665 49.8784 39.6375 52.0196 39.7803 54.2323L39.9944 56.8018C40.2799 60.3706 39.7803 64.0107 38.4241 67.294L35.4977 74.3602L29.5022 72.3617C25.5766 71.0769 22.5074 68.0077 21.2227 64.0821C20.723 62.6546 20.5089 61.2271 20.5803 59.7282L20.6516 53.233L18.3676 58.7289C17.4397 60.8702 17.1542 63.297 17.4397 65.6524L17.5111 66.3661C17.868 69.007 19.0814 71.5051 20.9371 73.5037L24.0063 77.0724C24.0063 77.0724 15.2271 75.6449 10.445 69.9349C6.59068 65.2955 4.94904 57.3014 4.94904 57.3014C4.94904 57.3014 3.94978 66.7944 7.94681 73.575L8.87469 75.1453C10.6591 78.1431 13.3713 80.3557 16.6546 81.4263L30.0018 85.7802" fill="white"/>
</mask>
<g mask="url(#mask0_232_752)">
<path d="M51.7714 48.1652C54.1268 53.2328 55.4116 59.0856 54.0554 64.5815C52.7707 70.0774 48.5595 75.0023 43.0636 76.2157C44.0629 71.2908 46.0614 66.58 47.703 61.7979C49.2733 57.0157 50.4866 51.9481 49.7015 46.9518C50.2725 46.9518 51.2718 47.0232 51.7714 48.1652Z" fill="#58CC02"/>
<path d="M37.1395 43.4545C40.28 48.5222 41.9216 54.5177 41.7789 60.5132C41.6361 66.5088 39.7804 72.4329 36.4257 77.3578C32.6428 76.8582 28.8599 75.5735 25.7194 73.3608C22.5789 71.0768 20.2235 67.7222 19.5097 63.9393C18.8673 60.1564 19.938 56.3735 21.0086 52.7333C21.1514 52.1623 21.3655 51.5199 21.7224 51.0203C22.3647 50.1638 23.5068 49.8069 24.506 49.45C27.8607 48.308 31.0012 46.4523 33.7134 44.0969C34.2131 43.6686 34.7127 43.2404 35.2837 42.9549C35.9261 42.8121 36.7826 42.8121 37.1395 43.4545Z" fill="#58CC02"/>
<path d="M4.80627 55.5884C5.09178 61.7267 6.30516 68.0077 9.87393 73.004C13.4427 78.0003 19.8665 81.2836 25.7907 79.6419C18.8672 71.5051 11.9438 63.4397 4.80627 55.5884Z" fill="#58CC02"/>
</g>
<path d="M40.5654 83.9959C43.9201 81.2122 48.4881 77.0724 51.7 73.9319C52.7706 72.8613 53.5557 71.5765 53.984 70.149C54.6977 67.9364 55.3401 65.6524 55.9111 63.3683C56.4108 61.2985 56.1253 58.6576 55.4829 56.659C54.2695 53.0189 53.413 51.8769 51.3431 48.3795C53.6271 57.8724 51.4859 62.155 50.2725 64.8672C48.9163 67.9364 43.8487 72.7899 43.8487 72.7899C44.1342 70.9341 44.9907 67.0799 45.2762 65.0814C45.6331 62.6546 45.5617 60.2278 45.1334 57.8011C45.0621 57.3728 44.9907 56.9445 44.9193 56.5163C43.8487 51.4486 41.1364 46.952 37.1394 43.6687C36.8539 43.4546 36.5684 43.1691 36.2829 42.955L38.2814 47.8799C39.0665 49.8784 39.6375 52.0196 39.7803 54.2323L39.9944 56.8018C40.2799 60.3706 39.7803 64.0107 38.4241 67.294L35.4977 74.3602L29.5022 72.3617C25.5766 71.0769 22.5074 68.0077 21.2226 64.0821C20.723 62.6546 20.5089 61.2271 20.5803 59.7282L20.6516 53.233L18.3676 58.7289C17.4397 60.8702 17.1542 63.297 17.4397 65.6524L17.5111 66.3661C17.868 69.007 19.0814 71.5051 20.9371 73.5037L24.0063 77.0724C24.0063 77.0724 15.2271 75.6449 10.445 69.9349C6.59068 65.2955 4.94904 57.3014 4.94904 57.3014C4.94904 57.3014 3.94978 66.7944 7.94681 73.575L8.87469 75.1453C10.6591 78.1431 13.3713 80.3557 16.6546 81.4263L30.0018 85.7802" stroke="#33291C" stroke-width="0.713755" stroke-miterlimit="10" stroke-linecap="round" stroke-linejoin="round"/>
<path d="M43.7057 146.449C41.4931 147.234 39.2804 147.805 37.0678 148.305C35.3548 148.662 33.6418 147.734 32.928 146.092C32.7853 145.664 32.6425 145.307 32.4998 144.879C31.9288 142.881 33.0708 140.739 35.0693 140.097C37.3533 139.383 39.9228 139.098 42.3496 138.955C43.9198 138.884 45.3474 139.883 45.847 141.31C45.9184 141.596 46.0611 141.953 46.1325 142.238C46.418 144.023 45.276 145.878 43.7057 146.449Z" fill="#FECC9B" stroke="#33291C" stroke-width="0.713755" stroke-miterlimit="10" stroke-linecap="round" stroke-linejoin="round"/>
<path d="M40.4225 139.74C37.9243 140.168 35.4262 140.382 32.928 140.454C31.0009 140.525 29.3593 139.312 28.931 137.599C28.8596 137.17 28.7169 136.742 28.7169 136.314C28.5028 134.173 30.1444 132.245 32.4284 132.031C34.9979 131.746 37.853 131.817 40.4225 132.103C42.0641 132.317 43.4202 133.459 43.6344 135.029C43.7057 135.315 43.7057 135.672 43.7057 135.957C43.8485 137.741 42.2782 139.454 40.4225 139.74Z" fill="#FECC9B" stroke="#33291C" stroke-width="0.713755" stroke-miterlimit="10" stroke-linecap="round" stroke-linejoin="round"/>
<path d="M38.7096 124.18C36.2828 124.109 33.9274 123.966 31.572 123.609C29.7876 123.324 28.3601 121.753 28.2174 119.898C28.2174 119.469 28.146 118.97 28.2174 118.541C28.3601 116.329 30.2159 114.616 32.3572 114.759C34.8553 114.901 37.4962 115.544 39.923 116.329C41.4932 116.828 42.5639 118.327 42.4925 119.969C42.4925 120.326 42.4925 120.611 42.4211 120.968C42.207 122.753 40.494 124.251 38.7096 124.18Z" fill="#FECC9B" stroke="#33291C" stroke-width="0.713755" stroke-miterlimit="10" stroke-linecap="round" stroke-linejoin="round"/>
<path d="M39.4946 132.531C36.6396 132.674 33.7846 132.602 31.0009 132.46C28.8597 132.317 27.1467 130.818 26.8612 128.962C26.7898 128.534 26.7898 128.034 26.7898 127.606C26.7898 125.393 28.9311 123.538 31.5006 123.538C34.427 123.538 37.6389 123.966 40.4939 124.537C42.3496 124.965 43.7058 126.321 43.7772 127.963C43.7772 128.32 43.7772 128.605 43.7772 128.962C43.563 130.889 41.6359 132.46 39.4946 132.531Z" fill="#FECC9B" stroke="#33291C" stroke-width="0.713755" stroke-miterlimit="10" stroke-linecap="round" stroke-linejoin="round"/>
<path d="M59.694 126.322C56.268 122.182 53.413 119.113 50.0583 116.258C48.5594 114.973 46.7037 114.33 44.7765 114.33C43.349 114.33 41.7788 114.473 40.3512 114.901C37.9245 115.544 35.9973 117.542 35.7832 120.04C35.6405 121.968 35.6405 125.18 35.7832 127.464C35.8546 129.462 37.8531 130.747 39.7089 130.319C39.7089 130.319 39.7089 130.319 39.7802 130.319C40.9222 130.033 41.7788 129.177 42.1356 128.106C42.6353 126.464 42.8494 125.679 43.2063 124.038C43.2063 128.249 46.6323 134.101 52.1996 136.1" fill="#FECC9B"/>
<path d="M59.694 126.322C56.268 122.182 53.413 119.113 50.0583 116.258C48.5594 114.973 46.7037 114.33 44.7765 114.33C43.349 114.33 41.7788 114.473 40.3512 114.901C37.9245 115.544 35.9973 117.542 35.7832 120.04C35.6405 121.968 35.6405 125.18 35.7832 127.464C35.8546 129.462 37.8531 130.747 39.7089 130.319C39.7089 130.319 39.7089 130.319 39.7802 130.319C40.9222 130.033 41.7788 129.177 42.1356 128.106C42.6353 126.464 42.8494 125.679 43.2063 124.038C43.2063 128.249 46.6323 134.101 52.1996 136.1" stroke="#33291C" stroke-width="0.713755" stroke-miterlimit="10" stroke-linecap="round" stroke-linejoin="round"/>
<path d="M283.884 178.925C285.169 165.007 282.385 150.732 275.819 138.384C275.819 138.384 262.329 152.373 262.543 152.659C263.542 164.436 271.322 175.285 283.884 178.925Z" fill="#FF9600" stroke="#33291C" stroke-width="0.713755" stroke-miterlimit="10" stroke-linecap="round" stroke-linejoin="round"/>
<path d="M266.754 159.083C271.822 153.801 276.461 146.806 278.317 140.382C274.605 138.241 271.394 135.957 268.11 133.316C266.469 136.385 264.042 139.026 261.044 140.81C262.115 146.877 263.97 152.802 266.754 159.083Z" fill="#FECC9B" stroke="#33291C" stroke-width="0.713755" stroke-miterlimit="10" stroke-linecap="round" stroke-linejoin="round"/>
<path d="M269.395 111.975C267.753 110.69 265.327 110.69 263.542 111.689C261.758 112.689 260.545 114.616 259.974 116.614C259.403 118.684 259.474 121.039 260.545 122.967C261.615 124.894 263.685 126.25 265.826 126.178" fill="#FECC9B"/>
<path d="M269.395 111.975C267.753 110.69 265.327 110.69 263.542 111.689C261.758 112.689 260.545 114.616 259.974 116.614C259.403 118.684 259.474 121.039 260.545 122.967C261.615 124.894 263.685 126.25 265.826 126.178" stroke="#33291C" stroke-width="0.713755" stroke-miterlimit="10" stroke-linecap="round" stroke-linejoin="round"/>
<path d="M277.674 142.309C279.388 138.169 281.529 134.172 283.028 129.961C284.527 125.75 285.312 121.111 284.312 116.757C283.313 112.403 280.101 108.335 275.747 107.192C273.82 106.693 271.75 106.764 270.037 107.764C268.324 108.763 267.111 110.619 267.468 112.903C266.112 113.474 264.97 114.616 264.541 116.043C264.113 117.471 264.327 119.041 265.398 120.611C263.542 121.967 262.828 124.679 263.97 126.678C263.043 127.891 262.686 129.604 263.043 131.103C263.399 132.602 264.47 133.958 265.612 134.743C265.398 136.1 265.755 137.527 266.611 138.598" fill="#FECC9B"/>
<path d="M277.674 142.309C279.388 138.169 281.529 134.172 283.028 129.961C284.527 125.75 285.312 121.111 284.312 116.757C283.313 112.403 280.101 108.335 275.747 107.192C273.82 106.693 271.75 106.764 270.037 107.764C268.324 108.763 267.111 110.619 267.468 112.903C266.112 113.474 264.97 114.616 264.541 116.043C264.113 117.471 264.327 119.041 265.398 120.611C263.542 121.967 262.828 124.679 263.97 126.678C263.043 127.891 262.686 129.604 263.043 131.103C263.399 132.602 264.47 133.958 265.612 134.743C265.398 136.1 265.755 137.527 266.611 138.598" stroke="#33291C" stroke-width="0.713755" stroke-miterlimit="10" stroke-linecap="round" stroke-linejoin="round"/>
<path d="M267.468 113.046C270.965 112.118 274.891 112.831 277.888 114.973" stroke="#33291C" stroke-width="0.713755" stroke-miterlimit="10" stroke-linecap="round" stroke-linejoin="round"/>
<path d="M265.398 120.611C269.038 119.184 273.32 119.541 276.675 121.539" stroke="#33291C" stroke-width="0.713755" stroke-miterlimit="10" stroke-linecap="round" stroke-linejoin="round"/>
<path d="M264.113 126.75C267.182 125.322 271.108 125.965 273.535 128.249" stroke="#33291C" stroke-width="0.713755" stroke-miterlimit="10" stroke-linecap="round" stroke-linejoin="round"/>
<path d="M266.54 133.102C265.969 133.816 265.612 134.744 265.612 135.672" stroke="#33291C" stroke-width="0.713755" stroke-miterlimit="10" stroke-linecap="round" stroke-linejoin="round"/>
<path d="M295.661 290.413C283.527 298.55 268.967 303.118 252.265 303.404C210.582 257.367 186.457 195.77 185.672 133.673C185.672 133.102 185.672 132.531 185.672 131.96L219.218 116.9L225.999 126.107C229.567 132.46 235.777 137.242 242.772 139.169C249.767 141.096 258.546 139.026 265.398 136.314C264.613 152.516 271.322 169.289 283.956 178.996C275.605 187.347 263.471 191.844 251.694 190.773C239.917 189.703 228.782 183.207 222.644 174.071C221.93 174.785 221.145 175.428 220.217 176.141C219.718 177.64 219.218 179.21 219.361 180.495C238.989 216.754 259.117 253.655 288.167 283.133C290.522 285.56 293.02 287.987 295.661 290.413Z" fill="#58CC02" stroke="#33291C" stroke-width="0.713755" stroke-miterlimit="10" stroke-linecap="round" stroke-linejoin="round"/>
<path d="M270.506 182.783L267.676 181.008L264.624 182.325L265.442 179.093L263.25 176.596L266.566 176.374L268.272 173.516L269.507 176.61L272.753 177.345L270.2 179.468L270.506 182.783Z" fill="#FF9600"/>
<path d="M240.506 172.783L237.676 171.008L234.624 172.325L235.442 169.093L233.25 166.596L236.566 166.374L238.272 163.516L239.507 166.61L242.753 167.345L240.2 169.468L240.506 172.783Z" fill="#FF9600"/>
<path d="M255.506 158.783L252.676 157.008L249.624 158.325L250.442 155.093L248.25 152.596L251.566 152.374L253.272 149.516L254.507 152.61L257.753 153.345L255.2 155.468L255.506 158.783Z" fill="#FF9600"/>
<path d="M224.549 210.151L221.719 208.376L218.667 209.694L219.485 206.461L217.293 203.964L220.609 203.742L222.315 200.884L223.55 203.978L226.796 204.713L224.244 206.836L224.549 210.151Z" fill="#FF9600"/>
<path d="M233.549 230.151L230.719 228.376L227.667 229.694L228.485 226.461L226.293 223.964L229.609 223.742L231.315 220.884L232.55 223.978L235.796 224.713L233.244 226.836L233.549 230.151Z" fill="#FF9600"/>
<path d="M248.549 256.151L245.719 254.376L242.667 255.694L243.485 252.461L241.293 249.964L244.609 249.742L246.315 246.884L247.55 249.978L250.796 250.713L248.244 252.836L248.549 256.151Z" fill="#FF9600"/>
<path d="M265.549 279.151L262.719 277.376L259.667 278.694L260.485 275.461L258.293 272.964L261.609 272.742L263.315 269.884L264.55 272.978L267.796 273.713L265.244 275.836L265.549 279.151Z" fill="#FF9600"/>
<path d="M299.23 293.625C294.019 304.689 271.822 306.687 255.12 306.973C210.153 259.008 186.457 195.77 185.672 133.673C190.311 133.031 197.734 132.103 202.231 131.603C201.874 148.733 201.445 166.934 204.515 183.779C213.222 224.82 233.279 263.933 265.969 296.623C274.819 296.623 285.954 296.124 291.664 286.274C294.091 288.772 296.589 291.199 299.23 293.625Z" fill="#FFB533" stroke="#33291C" stroke-width="0.713755" stroke-miterlimit="10" stroke-linecap="round" stroke-linejoin="round"/>
<path d="M219.075 141.453C220.574 150.66 222.43 159.796 224.643 168.861C224.999 170.289 224.571 171.787 223.572 172.929C223.215 173.358 222.787 173.786 222.359 174.143" stroke="#33291C" stroke-width="0.713755" stroke-miterlimit="10" stroke-linecap="round" stroke-linejoin="round"/>
<path d="M229.353 131.032C227.426 137.813 225.213 145.45 221.002 150.66" stroke="#33291C" stroke-width="0.713755" stroke-miterlimit="10" stroke-linecap="round" stroke-linejoin="round"/>
<path d="M163.331 297.765C156.979 299.05 149.913 298.836 143.132 297.622C137.707 296.623 128.429 294.625 124.574 293.554C120.934 292.555 114.225 294.839 112.583 295.981C111.941 293.411 111.298 290.842 110.656 288.201C107.444 274.425 105.089 260.721 103.233 247.089C101.734 235.883 104.946 224.534 112.155 215.755C122.933 202.622 135.637 189.489 148.2 178.354C143.346 175.927 139.634 173.358 137.565 170.003C128.714 174.5 117.936 177.283 107.301 177.569C96.6664 177.854 86.0315 176.427 75.4679 175.071C73.7549 158.298 68.1162 140.739 59.1229 125.108C89.9571 125.822 122.861 122.396 153.053 112.689L164.973 114.187C164.759 116.4 164.545 118.684 164.33 120.897C162.974 135.957 162.332 151.089 162.403 166.149C162.403 171.288 164.116 176.284 167.114 180.495C168.185 181.923 169.184 183.422 170.183 184.849C153.41 219.68 151.055 261.078 163.331 297.765Z" fill="#58CC02"/>
<path d="M163.331 297.765C156.979 299.05 149.913 298.836 143.132 297.622C137.707 296.623 128.429 294.625 124.574 293.554C120.934 292.555 114.225 294.839 112.583 295.981C111.941 293.411 111.298 290.842 110.656 288.201C107.444 274.425 105.089 260.721 103.233 247.089C101.734 235.883 104.946 224.534 112.155 215.755C122.933 202.622 135.637 189.489 148.2 178.354C143.346 175.927 139.634 173.358 137.565 170.003C128.714 174.5 117.936 177.283 107.301 177.569C96.6664 177.854 86.0315 176.427 75.4679 175.071C73.7549 158.298 68.1162 140.739 59.1229 125.108C89.9571 125.822 122.861 122.396 153.053 112.689L164.973 114.187C164.759 116.4 164.545 118.684 164.33 120.897C162.974 135.957 162.332 151.089 162.403 166.149C162.403 171.288 164.116 176.284 167.114 180.495C168.185 181.923 169.184 183.422 170.183 184.849C153.41 219.68 151.055 261.078 163.331 297.765Z" stroke="#33291C" stroke-width="0.713755" stroke-miterlimit="10" stroke-linecap="round" stroke-linejoin="round"/>
<path d="M133.506 148.783L130.676 147.008L127.624 148.325L128.442 145.093L126.25 142.596L129.566 142.374L131.272 139.516L132.507 142.61L135.753 143.345L133.2 145.468L133.506 148.783Z" fill="#FF9600"/>
<path d="M88.5056 140.783L85.6755 139.008L82.6235 140.325L83.442 137.093L81.2501 134.596L84.5657 134.374L86.2721 131.516L87.5068 134.61L90.753 135.345L88.2004 137.468L88.5056 140.783Z" fill="#FF9600"/>
<path d="M104.506 162.783L101.676 161.008L98.6235 162.325L99.442 159.093L97.2501 156.596L100.566 156.374L102.272 153.516L103.507 156.61L106.753 157.345L104.2 159.468L104.506 162.783Z" fill="#FF9600"/>
<path d="M121.549 256.151L118.719 254.376L115.667 255.694L116.485 252.461L114.293 249.964L117.609 249.742L119.315 246.884L120.55 249.978L123.796 250.713L121.244 252.836L121.549 256.151Z" fill="#FF9600"/>
<path d="M131.549 232.151L128.719 230.376L125.667 231.694L126.485 228.461L124.293 225.964L127.609 225.742L129.315 222.884L130.55 225.978L133.796 226.713L131.244 228.836L131.549 232.151Z" fill="#FF9600"/>
<path d="M143.506 208.783L140.676 207.008L137.624 208.325L138.442 205.093L136.25 202.596L139.566 202.374L141.272 199.516L142.507 202.61L145.753 203.345L143.2 205.468L143.506 208.783Z" fill="#FF9600"/>
<path d="M133.549 279.151L130.719 277.376L127.667 278.694L128.485 275.461L126.293 272.964L129.609 272.742L131.315 269.884L132.55 272.978L135.796 273.713L133.244 275.836L133.549 279.151Z" fill="#FF9600"/>
<path d="M163.331 297.765C156.979 299.05 149.913 298.836 143.132 297.622C137.707 296.623 128.428 294.625 124.574 293.554C120.934 292.555 114.225 294.839 112.583 295.981C111.941 293.411 111.298 290.842 110.656 288.201C115.795 285.346 122.005 284.632 127.858 285.274C134.353 285.917 140.634 288.129 146.772 290.271C138.278 255.868 141.847 218.182 157.407 186.134C155.266 182.494 153.339 179.639 151.483 176.998C149.413 174.071 148.485 170.503 148.842 166.934C150.484 150.803 152.839 135.529 156.122 120.397L164.259 120.897C162.903 135.957 162.26 151.089 162.332 166.149C162.332 171.288 164.045 176.284 167.043 180.495C168.113 181.923 169.113 183.422 170.112 184.849C153.41 219.68 151.055 261.078 163.331 297.765Z" fill="#FFB533" stroke="#33291C" stroke-width="0.713755" stroke-miterlimit="10" stroke-linecap="round" stroke-linejoin="round"/>
<path d="M136.922 117.542C138.564 124.537 141.419 131.175 145.416 137.17" stroke="#33291C" stroke-width="0.713755" stroke-miterlimit="10" stroke-linecap="round" stroke-linejoin="round"/>
<path d="M100.021 141.81C109.871 150.303 122.29 155.799 135.209 157.37" stroke="#33291C" stroke-width="0.713755" stroke-miterlimit="10" stroke-linecap="round" stroke-linejoin="round"/>
<path d="M141.276 184.635C167.328 193.628 196.306 194.271 222.715 186.419C222.216 182.279 221.573 179.282 220.574 176.355C194.879 182.565 168.042 182.065 142.489 175.285C141.918 178.354 141.633 181.494 141.276 184.635Z" fill="#FF9600" stroke="#33291C" stroke-width="0.713755" stroke-miterlimit="10" stroke-linecap="round" stroke-linejoin="round"/>
<path d="M183.602 195.698C179.676 196.198 175.75 196.055 172.11 195.27C170.611 194.984 169.327 193.771 169.041 192.272C168.185 187.847 168.185 183.35 169.041 178.996C169.398 177.212 170.897 175.927 172.681 175.856C176.25 175.713 179.962 175.784 183.745 176.355C185.458 176.641 186.814 177.997 187.028 179.71C187.527 183.778 187.456 188.061 187.028 192.272C186.885 194.057 185.386 195.484 183.602 195.698Z" fill="#FFB533" stroke="#33291C" stroke-width="0.713755" stroke-miterlimit="10" stroke-linecap="round" stroke-linejoin="round"/>
<path d="M180.247 191.915C178.605 192.058 177.035 191.986 175.465 191.701C173.895 191.487 172.681 190.273 172.467 188.703C172.182 186.776 172.182 184.849 172.396 182.922C172.61 181.137 174.109 179.781 175.822 179.781C177.321 179.781 178.819 179.781 180.318 179.995C182.031 180.209 183.316 181.566 183.459 183.279C183.602 184.992 183.602 186.847 183.387 188.632C183.387 190.345 181.96 191.772 180.247 191.915Z" fill="#FF9600" stroke="#33291C" stroke-width="0.713755" stroke-miterlimit="10" stroke-linecap="round" stroke-linejoin="round"/>
<path d="M173.324 187.704C171.111 187.775 168.898 187.561 166.686 187.204C165.9 187.062 165.329 186.348 165.329 185.563C165.329 184.564 166.115 183.85 167.114 183.921C169.255 184.064 171.325 184.207 173.466 184.349C174.394 184.421 175.108 185.277 175.037 186.205V186.277C174.894 187.062 174.18 187.633 173.324 187.704Z" fill="#FFB533" stroke="#33291C" stroke-width="0.713755" stroke-miterlimit="10" stroke-linecap="round" stroke-linejoin="round"/>
<path d="M110.37 52.5907C110.37 52.5907 85.8171 75.9305 161.903 108.192C162.403 97.5573 260.901 123.467 266.968 94.2026C267.039 90.9907 266.183 88.7067 264.684 87.1365C262.685 83.5677 258.046 81.2837 253.478 78.9283L174.965 58.6576L140.419 51.3773L125.716 49.2361L115.723 49.9498L110.37 52.5907Z" fill="#FF9600"/>
<path d="M110.37 52.5907C110.37 52.5907 85.8171 75.9305 161.903 108.192C162.403 97.5573 260.901 123.467 266.968 94.2026C267.039 90.9907 266.183 88.7067 264.684 87.1365C262.685 83.5677 258.046 81.2837 253.478 78.9283L174.965 58.6577L140.419 51.3773L125.716 49.2361L115.723 49.9498L110.37 52.5907Z" stroke="#33291C" stroke-width="0.713755" stroke-miterlimit="10" stroke-linecap="round" stroke-linejoin="round"/>
<path d="M158.406 126.963C154.552 126.535 150.912 124.394 148.556 121.325C146.272 118.184 145.059 114.187 145.844 110.404C144.702 111.546 143.988 113.117 143.845 114.687C143.845 115.044 143.774 115.401 143.845 115.686C143.917 116.685 142.561 117.042 142.132 116.186C141.205 114.544 140.848 112.546 141.062 110.69C141.49 107.478 143.56 104.623 146.129 102.624C147.7 101.411 149.484 100.483 150.912 99.127C152.339 97.7708 153.481 95.8437 153.196 93.9166C152.982 92.5604 152.125 91.347 151.697 90.0623C150.769 87.6355 151.197 84.8519 152.339 82.4965C153.481 80.1411 155.194 78.1426 157.05 76.3582C159.619 73.7887 162.332 71.5047 165.258 69.3634C168.184 69.863 170.683 70.6482 173.466 71.7188C166.614 89.063 160.976 108.549 158.406 126.963Z" fill="#D2C9D8"/>
<path d="M158.406 126.963C154.552 126.535 150.912 124.394 148.556 121.325C146.272 118.184 145.059 114.187 145.844 110.404C144.702 111.546 143.988 113.117 143.845 114.687C143.845 115.044 143.774 115.401 143.845 115.686C143.917 116.685 142.561 117.042 142.132 116.186C141.205 114.544 140.848 112.546 141.062 110.69C141.49 107.478 143.56 104.623 146.129 102.624C147.7 101.411 149.484 100.483 150.912 99.127C152.339 97.7708 153.481 95.8437 153.196 93.9166C152.982 92.5604 152.125 91.347 151.697 90.0623C150.769 87.6355 151.197 84.8519 152.339 82.4965C153.481 80.1411 155.194 78.1426 157.05 76.3582C159.619 73.7887 162.332 71.5047 165.258 69.3634C168.184 69.863 170.683 70.6482 173.466 71.7188C166.614 89.063 160.976 108.549 158.406 126.963Z" stroke="#33291C" stroke-width="0.713755" stroke-miterlimit="10" stroke-linecap="round" stroke-linejoin="round"/>
<path d="M215.863 190.774C218.076 191.63 218.504 194.628 216.506 195.984C215.506 196.626 214.436 197.197 213.365 197.697C210.296 198.982 207.013 199.553 203.658 199.481C200.732 199.41 197.805 198.91 195.164 197.554C192.524 196.27 190.239 194.057 189.169 191.345C189.24 192.344 189.454 193.272 189.883 194.2C190.311 195.199 189.312 196.198 188.312 195.77C186.742 194.985 185.315 193.7 184.387 192.273C182.745 189.846 182.103 186.919 181.96 183.993C181.746 179.139 183.031 174.215 185.529 170.075C185.671 169.789 188.17 169.789 188.598 169.718C189.669 169.575 190.811 169.361 191.881 169.075C193.88 168.647 195.735 167.719 197.805 167.933C201.445 168.362 204.8 170.503 206.727 173.572C207.512 174.857 208.083 176.284 209.011 177.498C210.153 178.997 211.866 180.067 213.722 180.496C215.221 180.852 215.578 182.78 214.436 183.707C214.222 183.922 213.936 184.064 213.651 184.278C212.223 185.135 210.51 185.706 208.869 185.349C210.582 187.776 213.08 189.774 215.863 190.774Z" fill="#D2C9D8"/>
<mask id="mask1_232_752" style="mask-type:luminance" maskUnits="userSpaceOnUse" x="181" y="167" width="37" height="33">
<path d="M215.863 190.774C218.076 191.63 218.504 194.628 216.506 195.984C215.506 196.626 214.436 197.197 213.365 197.697C210.296 198.982 207.013 199.553 203.658 199.481C200.732 199.41 197.805 198.91 195.164 197.554C192.524 196.27 190.239 194.057 189.169 191.345C189.24 192.344 189.454 193.272 189.883 194.2C190.311 195.199 189.312 196.198 188.312 195.77C186.742 194.985 185.315 193.7 184.387 192.273C182.745 189.846 182.103 186.919 181.96 183.993C181.746 179.139 183.031 174.215 185.529 170.075C185.671 169.789 188.17 169.789 188.598 169.718C189.669 169.575 190.811 169.361 191.881 169.075C193.88 168.647 195.735 167.719 197.805 167.933C201.445 168.362 204.8 170.503 206.727 173.572C207.512 174.857 208.083 176.284 209.011 177.498C210.153 178.997 211.866 180.067 213.722 180.496C215.221 180.852 215.578 182.78 214.436 183.707C214.222 183.922 213.936 184.064 213.651 184.278C212.223 185.135 210.51 185.706 208.869 185.349C210.582 187.776 213.08 189.774 215.863 190.774Z" fill="white"/>
</mask>
<g mask="url(#mask1_232_752)">
<path d="M191.096 194.699C196.592 197.769 203.373 198.482 209.368 196.627C210.439 196.341 211.295 195.484 211.509 194.414C211.938 192.487 210.153 191.487 208.797 190.417C206.941 188.989 205.585 186.991 204.943 184.778C204.8 184.207 205.157 183.565 205.728 183.422C206.585 183.208 207.441 182.209 207.441 181.281C207.512 179.853 206.585 178.64 205.799 177.498C203.801 174.571 202.373 171.288 201.446 167.862C205.799 170.789 210.153 173.858 213.651 177.783C217.148 181.709 219.718 186.634 219.932 191.916C220.003 194.057 219.718 196.27 218.576 198.054C217.077 200.481 214.293 201.837 211.581 202.765C208.083 203.978 204.301 204.621 200.66 203.835C196.949 203.05 193.523 200.552 191.096 194.699Z" fill="#D6DAE8"/>
</g>
<path d="M215.863 190.774C218.076 191.63 218.504 194.628 216.506 195.984C215.506 196.626 214.436 197.197 213.365 197.697C210.296 198.982 207.013 199.553 203.658 199.481C200.732 199.41 197.805 198.91 195.164 197.554C192.524 196.27 190.239 194.057 189.169 191.345C189.24 192.344 189.454 193.272 189.883 194.2C190.311 195.199 189.312 196.198 188.312 195.77C186.742 194.985 185.315 193.7 184.387 192.273C182.745 189.846 182.103 186.919 181.96 183.993C181.746 179.139 183.031 174.215 185.529 170.075C185.671 169.789 188.17 169.789 188.598 169.718C189.669 169.575 190.811 169.361 191.881 169.075C193.88 168.647 195.735 167.719 197.805 167.933C201.445 168.362 204.8 170.503 206.727 173.572C207.512 174.857 208.083 176.284 209.011 177.498C210.153 178.997 211.866 180.067 213.722 180.496C215.221 180.852 215.578 182.78 214.436 183.707C214.222 183.922 213.936 184.064 213.651 184.278C212.223 185.135 210.51 185.706 208.869 185.349C210.582 187.776 213.08 189.774 215.863 190.774Z" stroke="#33291C" stroke-width="0.713755" stroke-miterlimit="10" stroke-linecap="round" stroke-linejoin="round"/>
<path d="M183.887 170.075C183.887 170.146 183.887 170.217 183.958 170.289C184.173 171.145 184.886 171.859 185.814 172.002C189.669 172.644 193.666 172.144 197.163 170.431C197.877 170.075 198.376 169.361 198.448 168.576C198.448 168.433 198.448 168.219 198.448 168.076C198.448 166.72 197.163 165.649 195.807 165.935C192.595 166.577 189.169 167.148 185.886 167.576C184.529 167.719 183.673 168.861 183.887 170.075Z" fill="#F43D4B" stroke="#33291C" stroke-width="0.713755" stroke-miterlimit="10" stroke-linecap="round" stroke-linejoin="round"/>
<path d="M183.316 166.22C183.316 166.292 183.316 166.363 183.387 166.434C183.602 167.291 184.315 168.005 185.243 168.147C189.097 168.79 193.094 168.29 196.592 166.577C197.306 166.22 197.805 165.506 197.877 164.721C197.877 164.579 197.877 164.364 197.877 164.222C197.877 162.866 196.592 161.795 195.236 162.08C192.024 162.723 188.598 163.294 185.315 163.722C183.958 163.865 183.102 165.007 183.316 166.22Z" fill="#F43D4B" stroke="#33291C" stroke-width="0.713755" stroke-miterlimit="10" stroke-linecap="round" stroke-linejoin="round"/>
<path d="M163.26 85.423C152.696 117.328 151.126 156.513 182.174 164.436C187.028 165.649 192.238 165.149 196.806 163.008C226.141 149.375 218.005 130.961 212.437 87.7784L163.26 85.423Z" fill="#D2C9D8"/>
<path d="M163.26 85.423C152.696 117.328 151.126 156.513 182.174 164.436C187.028 165.649 192.238 165.149 196.806 163.008C226.141 149.375 218.005 130.961 212.437 87.7784L163.26 85.423Z" stroke="#33291C" stroke-width="0.713755" stroke-miterlimit="10" stroke-linecap="round" stroke-linejoin="round"/>
<path d="M168.042 70.1487C168.042 70.1487 160.119 90.9903 162.118 98.7703C164.116 106.55 172.11 109.405 182.745 109.191C193.309 108.977 203.087 113.259 210.082 97.9137C214.15 88.9204 212.437 72.1472 212.437 72.1472L168.042 70.1487Z" fill="#FECC9B"/>
<path d="M168.042 70.1487C168.042 70.1487 160.119 90.9903 162.118 98.7703C164.116 106.55 172.11 109.405 182.745 109.191C193.309 108.977 203.087 113.259 210.082 97.9137C214.15 88.9204 212.437 72.1472 212.437 72.1472L168.042 70.1487Z" stroke="#33291C" stroke-width="0.713755" stroke-miterlimit="10" stroke-linecap="round" stroke-linejoin="round"/>
<path d="M209.154 71.4333C207.512 76.7865 206.584 82.3538 206.584 87.9211C206.584 90.4906 206.727 93.1315 208.226 95.2727C209.511 97.1285 211.723 98.4133 212.509 100.555C213.508 103.267 211.938 106.193 211.081 108.977C209.939 112.831 210.367 117.042 212.152 120.611C213.08 122.324 214.293 123.894 215.72 125.179C216.577 125.964 217.576 126.678 218.575 127.249C219.432 127.82 220.574 127.035 220.36 126.036C220.288 125.679 220.217 125.25 220.217 124.822C224.785 127.534 229.282 128.676 234.421 127.749C238.418 127.035 242.272 124.751 244.627 121.468C245.27 120.611 244.556 119.398 243.485 119.469C242.201 119.612 240.845 119.326 239.774 118.541C241.558 118.684 243.057 117.685 244.199 116.329C244.699 115.758 245.056 115.187 245.341 114.473C245.77 113.473 244.77 112.474 243.771 112.902C241.558 113.902 239.132 114.187 236.776 113.473C233.564 112.474 231.066 109.476 231.066 106.122C231.066 104.409 231.637 102.839 232.137 101.197C232.565 99.5553 232.922 97.8423 232.351 96.2006C231.28 93.2029 227.64 92.0608 225.57 89.7055C224.214 88.1352 223.5 86.0653 223.215 83.924C222.715 80.3553 223.215 76.7151 224.714 73.3605C219.575 71.8616 214.507 71.2192 209.154 71.4333Z" fill="#D2C9D8"/>
<path d="M209.154 71.4333C207.512 76.7865 206.584 82.3538 206.584 87.9211C206.584 90.4906 206.727 93.1315 208.226 95.2727C209.511 97.1285 211.723 98.4133 212.509 100.555C213.508 103.267 211.938 106.193 211.081 108.977C209.939 112.831 210.367 117.042 212.152 120.611C213.08 122.324 214.293 123.894 215.72 125.179C216.577 125.964 217.576 126.678 218.575 127.249C219.432 127.82 220.574 127.035 220.36 126.036C220.288 125.679 220.217 125.25 220.217 124.822C224.785 127.534 229.282 128.676 234.421 127.749C238.418 127.035 242.272 124.751 244.627 121.468C245.27 120.611 244.556 119.398 243.485 119.469C242.201 119.612 240.845 119.326 239.774 118.541C241.558 118.684 243.057 117.685 244.199 116.329C244.699 115.758 245.056 115.187 245.341 114.473C245.77 113.473 244.77 112.474 243.771 112.902C241.558 113.902 239.132 114.187 236.776 113.473C233.564 112.474 231.066 109.476 231.066 106.122C231.066 104.409 231.637 102.839 232.137 101.197C232.565 99.5553 232.922 97.8423 232.351 96.2006C231.28 93.2029 227.64 92.0608 225.57 89.7055C224.214 88.1352 223.5 86.0653 223.215 83.924C222.715 80.3553 223.215 76.7151 224.714 73.3605C219.575 71.8616 214.507 71.2192 209.154 71.4333Z" stroke="#33291C" stroke-width="0.713755" stroke-miterlimit="10" stroke-linecap="round" stroke-linejoin="round"/>
<path d="M182.531 75.7872C178.463 71.7188 170.825 74.0028 166.686 77.643C168.327 74.0028 170.754 71.2906 174.608 70.3627C175.893 70.0772 177.392 70.0772 178.677 70.5054C180.889 71.2906 182.174 73.0036 182.531 75.7872Z" fill="#D2C9D8" stroke="#33291C" stroke-width="0.713755" stroke-miterlimit="10" stroke-linecap="round" stroke-linejoin="round"/>
<path d="M176.036 113.117C177.321 115.615 180.39 116.899 183.102 116.543C185.886 116.186 188.312 114.33 189.74 111.903L185.814 105.265L176.678 107.906L176.036 113.117Z" fill="#F43D4B" stroke="#33291C" stroke-width="0.713755" stroke-miterlimit="10" stroke-linecap="round" stroke-linejoin="round"/>
<path d="M208.583 109.262C207.941 111.975 206.085 114.401 203.515 115.758C200.946 117.114 197.805 117.328 195.022 116.329C195.593 116.543 195.735 117.471 195.521 118.042C195.236 118.541 194.665 118.898 194.094 118.969C193.523 119.041 192.88 118.898 192.309 118.755C187.741 117.399 184.03 113.759 182.174 109.477C182.031 109.12 181.889 108.763 181.817 108.406C181.674 108.763 181.46 109.048 181.246 109.405C178.819 113.331 174.608 116.4 169.897 117.042C169.326 117.114 168.684 117.185 168.113 117.042C167.542 116.9 166.971 116.471 166.828 115.9C166.686 115.329 166.971 114.473 167.542 114.33C164.687 114.901 161.618 114.187 159.263 112.546C156.907 110.833 155.408 108.192 155.194 105.408C155.123 104.694 155.194 103.909 155.622 103.267C156.051 102.624 156.979 102.339 157.621 102.696C157.05 102.196 157.55 101.126 158.263 100.911C158.977 100.697 159.834 100.983 160.476 101.411C161.118 101.839 161.761 102.339 162.474 102.624C164.187 103.196 165.9 102.196 167.542 101.411C169.969 100.198 172.681 99.2699 175.465 99.484C178.177 99.6981 180.961 101.054 182.174 103.481C183.673 101.34 186.671 100.34 189.383 100.555C192.167 100.769 194.665 102.053 196.949 103.624C198.376 104.623 200.018 105.836 201.731 105.551C202.516 105.408 203.158 104.98 203.872 104.694C204.586 104.409 205.442 104.195 206.156 104.552C206.87 104.909 207.156 105.979 206.513 106.407C207.227 106.122 208.083 106.622 208.44 107.264C208.797 107.764 208.726 108.549 208.583 109.262Z" fill="#D2C9D8" stroke="#33291C" stroke-width="0.713755" stroke-miterlimit="10" stroke-linecap="round" stroke-linejoin="round"/>
<path d="M188.741 92.2036C188.098 97.1285 190.668 99.9835 194.237 100.412C197.805 100.911 201.017 98.8415 201.731 93.9166C202.373 88.9917 200.232 82.9962 196.663 82.4965C193.023 82.0683 189.383 87.2787 188.741 92.2036Z" fill="white"/>
<mask id="mask2_232_752" style="mask-type:luminance" maskUnits="userSpaceOnUse" x="188" y="82" width="14" height="19">
<path d="M188.741 92.2036C188.098 97.1285 190.668 99.9835 194.237 100.412C197.805 100.911 201.017 98.8415 201.731 93.9166C202.373 88.9917 200.232 82.9962 196.663 82.4965C193.023 82.0683 189.383 87.2787 188.741 92.2036Z" fill="white"/>
</mask>
<g mask="url(#mask2_232_752)">
<path d="M186.1 90.9188C185.457 95.4869 187.599 99.4839 190.739 99.9122C193.951 100.34 197.02 96.9858 197.663 92.4891C198.305 87.9211 196.164 83.924 193.023 83.4958C189.811 83.0675 186.742 86.3508 186.1 90.9188Z" fill="#3C3C3C"/>
</g>
<mask id="mask3_232_752" style="mask-type:luminance" maskUnits="userSpaceOnUse" x="188" y="82" width="14" height="19">
<path d="M188.741 92.2036C188.098 97.1285 190.668 99.9835 194.237 100.412C197.805 100.911 201.017 98.8415 201.731 93.9166C202.373 88.9917 200.232 82.9962 196.663 82.4965C193.023 82.0683 189.383 87.2787 188.741 92.2036Z" fill="white"/>
</mask>
<g mask="url(#mask3_232_752)">
<path d="M185.885 90.9902C185.386 94.4876 187.028 97.6281 189.454 97.9136C191.952 98.2705 194.308 95.701 194.807 92.2036C195.307 88.7062 193.665 85.5656 191.239 85.2801C188.812 84.9946 186.385 87.4928 185.885 90.9902Z" fill="#33291C"/>
</g>
<path d="M188.741 92.2036C188.098 97.1285 190.668 99.9835 194.237 100.412C197.805 100.911 201.017 98.8415 201.731 93.9166C202.373 88.9917 200.232 82.9962 196.663 82.4965C193.023 82.0683 189.383 87.2787 188.741 92.2036Z" stroke="#33291C" stroke-width="0.713755" stroke-miterlimit="10" stroke-linecap="round" stroke-linejoin="round"/>
<path d="M167.828 89.8484C167.185 94.7733 169.755 97.6283 173.323 98.0566C176.892 98.5562 180.104 96.4863 180.818 91.5614C181.46 86.6365 179.319 80.6409 175.75 80.1413C172.181 79.7131 168.47 84.9235 167.828 89.8484Z" fill="white"/>
<mask id="mask4_232_752" style="mask-type:luminance" maskUnits="userSpaceOnUse" x="167" y="80" width="14" height="19">
<path d="M167.828 89.8484C167.185 94.7733 169.755 97.6283 173.323 98.0566C176.892 98.5562 180.104 96.4863 180.818 91.5614C181.46 86.6365 179.319 80.6409 175.75 80.1413C172.181 79.7131 168.47 84.9235 167.828 89.8484Z" fill="white"/>
</mask>
<g mask="url(#mask4_232_752)">
<path d="M165.186 88.5634C164.544 93.1314 166.685 97.1284 169.826 97.5567C173.038 97.9849 176.107 94.6303 176.749 90.1336C177.392 85.5656 175.25 81.5686 172.11 81.1403C168.898 80.7121 165.829 83.9953 165.186 88.5634Z" fill="#3C3C3C"/>
</g>
<mask id="mask5_232_752" style="mask-type:luminance" maskUnits="userSpaceOnUse" x="167" y="80" width="14" height="19">
<path d="M167.828 89.8484C167.185 94.7733 169.755 97.6283 173.323 98.0566C176.892 98.5562 180.104 96.4863 180.818 91.5614C181.46 86.6365 179.319 80.6409 175.75 80.1413C172.181 79.7131 168.47 84.9235 167.828 89.8484Z" fill="white"/>
</mask>
<g mask="url(#mask5_232_752)">
<path d="M164.973 88.6349C164.473 92.1323 166.115 95.2728 168.541 95.5583C171.04 95.9152 173.395 93.3457 173.895 89.8483C174.394 86.3509 172.753 83.2103 170.326 82.9248C167.828 82.568 165.472 85.1375 164.973 88.6349Z" fill="#33291C"/>
</g>
<path d="M167.828 89.8484C167.185 94.7733 169.755 97.6283 173.323 98.0566C176.892 98.5562 180.104 96.4863 180.818 91.5614C181.46 86.6365 179.319 80.6409 175.75 80.1413C172.181 79.7131 168.47 84.9235 167.828 89.8484Z" stroke="#33291C" stroke-width="0.713755" stroke-miterlimit="10" stroke-linecap="round" stroke-linejoin="round"/>
<path d="M182.531 86.993C181.46 96.5574 174.037 96.6287 174.537 102.196C174.68 103.552 175.536 104.837 176.678 105.622C178.605 106.978 181.318 107.192 183.602 106.336C185.671 105.622 188.741 103.409 188.741 99.4124" fill="#FECC9B"/>
<path d="M182.531 86.993C181.46 96.5574 174.037 96.6287 174.537 102.196C174.68 103.552 175.536 104.837 176.678 105.622C178.605 106.978 181.318 107.192 183.602 106.336C185.671 105.622 188.741 103.409 188.741 99.4124" stroke="#33291C" stroke-width="0.713755" stroke-miterlimit="10" stroke-linecap="round" stroke-linejoin="round"/>
<path d="M166.757 54.5178C166.757 54.5178 182.031 35.175 189.668 27.9661C198.733 19.401 234.778 -0.869604 238.132 0.415155C241.487 1.69991 229.282 38.5297 227.712 47.1661C226.141 55.8739 224.286 72.0761 224.286 72.0761L167.399 55.6598" fill="#58CC02"/>
<path d="M166.757 54.5178C166.757 54.5178 182.031 35.175 189.668 27.9661C198.733 19.401 234.778 -0.869604 238.132 0.415155C241.487 1.69991 229.282 38.5297 227.712 47.1661C226.141 55.8739 224.286 72.0761 224.286 72.0761L167.399 55.6598" stroke="#33291C" stroke-width="0.713755" stroke-miterlimit="10" stroke-linecap="round" stroke-linejoin="round"/>
<path d="M196.506 41.7833L193.676 40.0076L190.624 41.3255L191.442 38.0931L189.25 35.596L192.566 35.374L194.272 32.5162L195.507 35.6099L198.753 36.3451L196.2 38.4677L196.506 41.7833Z" fill="#FF9600"/>
<path d="M217.506 57.7833L214.676 56.0076L211.624 57.3255L212.442 54.0931L210.25 51.596L213.566 51.374L215.272 48.5162L216.507 51.6099L219.753 52.3451L217.2 54.4677L217.506 57.7833Z" fill="#FF9600"/>
<path d="M221.506 29.7833L218.676 28.0076L215.624 29.3255L216.442 26.0931L214.25 23.596L217.566 23.374L219.272 20.5162L220.507 23.6099L223.753 24.3451L221.2 26.4677L221.506 29.7833Z" fill="#FF9600"/>
<path d="M110.37 52.5906C110.37 52.5906 118.793 46.2382 133.996 52.0196C142.132 55.0888 146.201 60.6561 152.482 66.5802C158.763 72.5044 173.609 68.5787 181.389 72.2903C194.308 78.4285 201.231 86.9936 218.504 83.1393C227.212 81.2122 238.989 79.1423 247.768 80.2843C259.188 81.7832 266.183 85.9943 266.897 94.2025C266.897 94.2025 270.18 84.7096 253.407 77.2152C237.633 70.2204 197.948 59.1572 192.88 57.801C186.171 55.9453 120.434 38.9579 110.37 52.5906Z" fill="#58CC02"/>
</svg>
